<svg width="123" height="123" viewBox="0 0 123 123" fill="none" xmlns="http://www.w3.org/2000/svg">
<g clip-path="url(#clip0_7_2)">
<rect x="23" y="26" width="77" height="70" fill="white"/>
<path fill-rule="evenodd" clip-rule="evenodd" d="M17.89 0H106.79C115.64 0 122.89 7.24 122.89 16.1V106.78C122.89 115.63 115.65 122.88 106.79 122.88H16.1C7.25 122.88 0 115.64 0 106.78V17.88C0 8.05 8.05 0 17.89 0ZM34.54 31.06H69.71C75.57 31.06 80.06 32.52 83.2 35.42C86.34 38.32 87.91 41.91 87.91 46.2C87.91 49.79 86.79 52.88 84.54 55.44C83.05 57.17 80.86 58.51 77.99 59.51C82.36 60.56 85.56 62.35 87.62 64.91C89.67 67.47 90.7 70.68 90.7 74.54C90.7 77.69 89.96 80.52 88.51 83.04C87.04 85.56 85.03 87.54 82.5 89.01C80.92 89.92 78.54 90.58 75.36 90.99C71.13 91.54 68.33 91.82 66.94 91.82H34.54V31.06ZM53.46 54.91H61.65C64.58 54.91 66.63 54.4 67.77 53.4C68.92 52.38 69.5 50.93 69.5 49.02C69.5 47.25 68.92 45.87 67.77 44.88C66.62 43.88 64.62 43.38 61.77 43.38H53.45V54.91H53.46ZM53.46 78.75H63.03C66.27 78.75 68.55 78.17 69.88 77.02C71.21 75.87 71.87 74.35 71.87 72.41C71.87 70.61 71.22 69.17 69.9 68.08C68.58 66.99 66.28 66.44 62.98 66.44H53.45V78.75H53.46Z" fill="#33BBCF"/>
</g>
<defs>
<clipPath id="clip0_7_2">
<rect width="122.88" height="122.88" fill="white"/>
</clipPath>
</defs>
</svg>
